<svg width="90" height="16" viewBox="0 0 90 16" fill="none" xmlns="http://www.w3.org/2000/svg">
<path d="M10.4105 12.7966H8.52162L7.57717 9.2848H3.0438L2.09935 12.7966H0.210449L3.00946 2.50107C3.37579 1.14204 4.13708 0.462527 5.29331 0.462527C6.47245 0.462527 7.24518 1.14204 7.61151 2.50107L10.4105 12.7966ZM7.1307 7.67452L5.85998 2.99786C5.71116 2.44968 5.52227 2.17559 5.29331 2.17559C5.08725 2.17559 4.90981 2.44968 4.76099 2.99786L3.49027 7.67452H7.1307Z" fill="#504F51"/>
<path d="M17.4833 10.227C17.4833 11.0378 17.1971 11.6945 16.6247 12.197C16.0523 12.6881 15.3139 12.9336 14.4095 12.9336C13.6883 12.9336 12.7496 12.7452 11.5934 12.3683L11.9196 10.758C13.1217 11.0892 13.9516 11.2548 14.4095 11.2548C15.2338 11.2548 15.6459 10.9122 15.6459 10.227C15.6459 9.78158 15.3139 9.40471 14.65 9.09636C13.551 8.58244 12.927 8.26838 12.7782 8.15418C12.1142 7.65168 11.7823 6.94361 11.7823 6.02998C11.7823 5.23055 12.0685 4.59672 12.6408 4.12848C13.2132 3.64882 13.923 3.40899 14.7702 3.40899C15.4456 3.40899 16.2527 3.57459 17.1914 3.90578L16.7449 5.4818C15.8978 5.21913 15.2395 5.08779 14.7702 5.08779C14.0031 5.08779 13.6196 5.40186 13.6196 6.02998C13.6196 6.42969 13.9516 6.77231 14.6156 7.05782C15.623 7.48037 16.2469 7.78301 16.4873 7.96574C17.1513 8.49108 17.4833 9.24483 17.4833 10.227Z" fill="#504F51"/>
<path d="M26.6265 9.47323C26.6265 10.444 26.3174 11.2662 25.6992 11.94C25.081 12.6024 24.2797 12.9336 23.2952 12.9336C22.78 12.9336 22.0645 12.7452 21.1487 12.3683C21.1945 12.9508 21.2174 13.596 21.2174 14.3041V16H19.3972V3.54604H20.9083L20.9941 4.07709C21.91 3.63169 22.677 3.40899 23.2952 3.40899C24.2797 3.40899 25.081 3.74019 25.6992 4.40257C26.3174 5.06495 26.6265 5.88151 26.6265 6.85225V9.47323ZM24.8063 9.23341V7.05782C24.8063 6.45253 24.6632 5.97288 24.377 5.61884C24.0908 5.26481 23.6787 5.08779 23.1406 5.08779C22.4995 5.08779 21.8585 5.23626 21.2174 5.53319V10.8437C21.9386 11.1178 22.5797 11.2548 23.1406 11.2548C24.2511 11.2548 24.8063 10.581 24.8063 9.23341Z" fill="#504F51"/>
<path d="M35.7278 8.35974C35.7278 8.61099 35.6076 8.73662 35.3672 8.73662H30.3359V9.19914C30.3359 9.74732 30.4847 10.2041 30.7824 10.5696C31.1487 11.0264 31.6925 11.2548 32.4137 11.2548C33.0204 11.2548 33.8962 11.1006 35.041 10.7923L35.4359 12.3683C34.3255 12.7452 33.3181 12.9336 32.4137 12.9336C31.1888 12.9336 30.2157 12.5453 29.4945 11.7687C28.8419 11.0721 28.5157 10.2156 28.5157 9.19914V7.1606C28.5157 6.13276 28.8362 5.26481 29.4773 4.55675C30.1527 3.79158 31.0342 3.40899 32.1218 3.40899C33.2093 3.40899 34.0965 3.79729 34.7834 4.57388C35.413 5.29336 35.7278 6.1556 35.7278 7.1606V8.35974ZM33.8905 7.34904C33.8676 5.84154 33.278 5.08779 32.1218 5.08779C30.977 5.08779 30.3817 5.84154 30.3359 7.34904H33.8905Z" fill="#504F51"/>
<path d="M44.0805 12.4368C43.0731 12.768 42.1458 12.9336 41.2986 12.9336C40.131 12.9336 39.1922 12.5453 38.4825 11.7687C37.8414 11.0607 37.5208 10.2041 37.5208 9.19914V7.14347C37.5208 6.13847 37.8414 5.28194 38.4825 4.57388C39.1922 3.79729 40.131 3.40899 41.2986 3.40899C42.0771 3.40899 42.9758 3.57459 43.9946 3.90578L43.5653 5.46467C42.5694 5.21342 41.8138 5.08779 41.2986 5.08779C40.6232 5.08779 40.1138 5.32191 39.7703 5.79015C39.4841 6.18987 39.341 6.69236 39.341 7.29765V9.0621C39.341 9.66738 39.4841 10.1642 39.7703 10.5525C40.1138 11.0207 40.6232 11.2548 41.2986 11.2548C41.9168 11.2548 42.701 11.1349 43.6512 10.8951L44.0805 12.4368Z" fill="#504F51"/>
<path d="M57.8752 12.197C56.3183 12.6881 55.0762 12.9336 54.1489 12.9336C52.6836 12.9336 51.5388 12.5054 50.7146 11.6488C49.9247 10.838 49.5297 9.77016 49.5297 8.4454V4.96788C49.5297 3.60885 49.896 2.54104 50.6287 1.76445C51.4415 0.896503 52.6664 0.462527 54.3035 0.462527C55.2308 0.462527 56.3355 0.656674 57.6176 1.04497L57.2055 2.67238C56.0951 2.34119 55.1277 2.17559 54.3035 2.17559C52.3459 2.17559 51.3671 3.16346 51.3671 5.13919V8.29122C51.3671 10.2555 52.2944 11.2377 54.1489 11.2377C54.7786 11.2377 55.4483 11.152 56.158 10.9807V6.80086L57.8752 6.64668V12.197Z" fill="#504F51"/>
<path d="M67.7743 2.2955H64.5975V12.7966H62.7429V2.2955H59.5833V0.599572H67.7743V2.2955Z" fill="#504F51"/>
<path d="M77.0825 4.43683C77.0825 5.15632 76.8993 5.80728 76.533 6.38972C76.1323 7.02926 75.5599 7.50321 74.8158 7.81156L75.7259 9.64454L77.0138 12.7966H74.9532L73.0986 8.17131H71.3127V12.7966H69.4582V1.16488C71.0952 0.696645 72.3717 0.462527 73.2875 0.462527C74.4781 0.462527 75.4225 0.867951 76.1208 1.6788C76.7619 2.40971 77.0825 3.32905 77.0825 4.43683ZM75.2107 4.43683C75.2107 3.80871 75.0619 3.28908 74.7643 2.87794C74.4208 2.39829 73.9286 2.15846 73.2875 2.15846C72.6693 2.15846 72.0111 2.24982 71.3127 2.43255V6.57816H73.1329C73.8427 6.57816 74.3808 6.34975 74.7471 5.89293C75.0562 5.50464 75.2107 5.01927 75.2107 4.43683Z" fill="#504F51"/>
<path d="M85.4155 8.35974C85.4155 8.61099 85.2953 8.73662 85.0549 8.73662H80.0235V9.19914C80.0235 9.74732 80.1724 10.2041 80.47 10.5696C80.8363 11.0264 81.3801 11.2548 82.1013 11.2548C82.7081 11.2548 83.5838 11.1006 84.7286 10.7923L85.1236 12.3683C84.0131 12.7452 83.0057 12.9336 82.1013 12.9336C80.8764 12.9336 79.9033 12.5453 79.1821 11.7687C78.5296 11.0721 78.2033 10.2156 78.2033 9.19914V7.1606C78.2033 6.13276 78.5239 5.26481 79.165 4.55675C79.8404 3.79158 80.7219 3.40899 81.8094 3.40899C82.897 3.40899 83.7842 3.79729 84.4711 4.57388C85.1007 5.29336 85.4155 6.1556 85.4155 7.1606V8.35974ZM83.5781 7.34904C83.5552 5.84154 82.9657 5.08779 81.8094 5.08779C80.6646 5.08779 80.0693 5.84154 80.0235 7.34904H83.5781Z" fill="#504F51"/>
<path d="M89.8701 11.4433L89.4752 12.9507C88.8684 12.8936 88.3819 12.6938 88.0156 12.3512C87.6492 12.0086 87.4661 11.5746 87.4661 11.0493V0H89.2863V10.7752C89.2863 11.1406 89.4809 11.3633 89.8701 11.4433Z" fill="#504F51"/>
</svg>
