<svg width="16" height="18" viewBox="0 0 16 18" fill="none" xmlns="http://www.w3.org/2000/svg">
<path d="M8.50006 3.9C10.2801 3.9 10.9401 4.75 11.0001 6H13.2101C13.1401 4.28 12.0901 2.7 10.0001 2.19V0H7.00006V2.16C6.47006 2.28 5.97006 2.46 5.52006 2.7L6.99006 4.17C7.40006 4 7.90006 3.9 8.50006 3.9ZM1.33006 1.06L0.0600586 2.33L3.50006 5.77C3.50006 7.85 5.06006 8.98 7.41006 9.68L10.9201 13.19C10.5801 13.67 9.87006 14.1 8.50006 14.1C6.44006 14.1 5.63006 13.18 5.52006 12H3.32006C3.44006 14.19 5.08006 15.42 7.00006 15.83V18H10.0001V15.85C10.9601 15.67 11.8201 15.3 12.4501 14.73L14.6701 16.95L15.9401 15.68L1.33006 1.06Z" fill="#FFDBCD"/>
</svg>
