<svg width="18" height="17" viewBox="0 0 18 17" fill="none" xmlns="http://www.w3.org/2000/svg">
<path d="M9.00008 0.166748C4.40008 0.166748 0.666748 3.90008 0.666748 8.50008C0.666748 13.1001 4.40008 16.8334 9.00008 16.8334C13.6001 16.8334 17.3334 13.1001 17.3334 8.50008C17.3334 3.90008 13.6001 0.166748 9.00008 0.166748ZM15.2167 6.10008L12.9001 7.05842C12.4751 5.92508 11.5834 5.02508 10.4417 4.60841L11.4001 2.29175C13.1501 2.95842 14.5417 4.35008 15.2167 6.10008ZM9.00008 11.0001C7.61675 11.0001 6.50008 9.88342 6.50008 8.50008C6.50008 7.11675 7.61675 6.00008 9.00008 6.00008C10.3834 6.00008 11.5001 7.11675 11.5001 8.50008C11.5001 9.88342 10.3834 11.0001 9.00008 11.0001ZM6.60842 2.28341L7.58342 4.60008C6.43341 5.01675 5.52508 5.92508 5.10008 7.07508L2.78341 6.10842C3.45841 4.35008 4.85008 2.95841 6.60842 2.28341ZM2.78341 10.8917L5.10008 9.93342C5.52508 11.0834 6.42508 11.9834 7.57508 12.4001L6.60008 14.7167C4.85008 14.0417 3.45841 12.6501 2.78341 10.8917ZM11.4001 14.7167L10.4417 12.4001C11.5834 11.9751 12.4834 11.0751 12.9001 9.92508L15.2167 10.9001C14.5417 12.6501 13.1501 14.0417 11.4001 14.7167Z" fill="#FFDBCD"/>
</svg>
