<svg width="96" height="30" viewBox="0 0 96 30" fill="none" xmlns="http://www.w3.org/2000/svg">
<g clip-path="url(#clip0_902_11511)">
<path fill-rule="evenodd" clip-rule="evenodd" d="M12.7062 30L11.8962 29.7154L11.1896 29.4566L10.4959 29.1935L9.82805 28.9218L9.17313 28.6458L8.53976 28.3654L7.92793 28.0765L7.33764 27.7832L6.76459 27.4813L6.21308 27.1708L5.68312 26.8516L5.1747 26.5282L4.68782 26.1918L4.22248 25.8468L3.77869 25.4931L3.35644 25.1308L2.96005 24.7556L2.58519 24.3675L2.23188 23.9707L1.90443 23.561L1.60282 23.1426L1.32707 22.707L1.07286 22.2628L0.848805 21.8013L0.646299 21.3312L0.473952 20.8439L0.327458 20.3479L0.202507 19.8347L0.112025 19.3085L0.0473952 18.7651L0.00861731 18.2131L0 17.6438V1.16878L0.986682 0.996262L1.76655 0.866878L2.55072 0.746118L3.33059 0.638298L4.11046 0.53479L4.89463 0.439908L5.6745 0.357964L6.45437 0.284646L7.23854 0.215641L8.01841 0.159574L8.79828 0.112133L9.58245 0.0690052L10.3623 0.0388154L11.1422 0.0172513L11.9264 0.00431282L12.7062 0L13.4861 0.00431282L14.2703 0.0172513L15.0501 0.0388154L15.83 0.0690052L16.6142 0.112133L17.394 0.159574L18.1739 0.215641L18.9581 0.284646L19.738 0.357964L20.5178 0.439908L21.302 0.53479L22.0819 0.638298L22.8617 0.746118L23.6459 0.866878L24.4258 0.996262L25.4125 1.16878V17.6438L25.4038 18.2131L25.3651 18.7651L25.3004 19.3085L25.2056 19.8347L25.0893 20.3479L24.9385 20.8439L24.7662 21.3312L24.5637 21.8013L24.3396 22.2628L24.0854 22.707L23.8096 23.1426L23.5037 23.561L23.1806 23.9707L22.8273 24.3675L22.4524 24.7556L22.056 25.1308L21.6338 25.4931L21.19 25.8468L20.7246 26.1918L20.2378 26.5282L19.7293 26.8516L19.1994 27.1708L18.6479 27.4813L18.0748 27.7832L17.4845 28.0765L16.8727 28.3654L16.2393 28.6458L15.5844 28.9218L14.9123 29.1935L14.2229 29.4566L13.5163 29.7154L12.7062 30Z" fill="#FDB933"/>
<path fill-rule="evenodd" clip-rule="evenodd" d="M12.7752 28.8485C18.0619 27.0026 24.0983 24.2855 24.2017 17.8638V7.76312C17.3639 2.64811 8.96634 2.58773 1.34863 3.50205V17.8638C1.45635 24.2855 7.48847 27.0026 12.7752 28.8485Z" fill="#004C8D"/>
<path fill-rule="evenodd" clip-rule="evenodd" d="M14.3781 19.7181C14.0894 19.9165 13.8007 20.102 13.5164 20.2831L13.9774 20.6626C14.2575 20.4772 14.5461 20.2831 14.8391 20.0761L14.3867 19.7181H14.3781ZM9.70321 16.6129C9.91865 16.3584 10.1341 16.1126 10.3667 15.884C9.13486 14.5392 8.04476 13.0708 7.11371 11.5022C6.82503 11.7868 6.54066 12.0844 6.27783 12.3648C7.3248 13.8549 8.46909 15.274 9.70321 16.6129Z" fill="white"/>
<path fill-rule="evenodd" clip-rule="evenodd" d="M15.2786 19.7527L14.9425 19.3214C12.4392 21.0983 9.82383 22.4568 8.36319 21.219C6.85516 19.7915 9.42743 16.6086 11.3146 14.974L7.90217 10.782C4.0847 14.1546 1.77526 18.6831 4.52849 21.439C7.39375 23.8067 11.0647 22.901 15.2786 19.7527Z" fill="white"/>
<path fill-rule="evenodd" clip-rule="evenodd" d="M14.5203 12.5332L13.9946 12.9644C10.4745 9.2209 6.58374 6.98686 5.94606 7.71141C5.30838 8.43597 7.08785 12.3779 10.6253 16.1645C14.1627 19.9512 17.6656 22.4872 18.6394 21.5642C19.109 21.1329 18.885 20.0245 18.1439 18.584L18.8074 17.963C20.5309 20.6326 21.2332 22.7761 20.4533 23.505C19.1866 24.691 14.4513 21.6979 9.91002 16.8417C5.3687 11.9854 2.71888 7.05586 3.98562 5.86984C5.25237 4.68381 9.98327 7.67691 14.5203 12.5332Z" fill="#FDB933"/>
<path fill-rule="evenodd" clip-rule="evenodd" d="M11.0602 9.21213C13.2878 7.76302 15.5111 6.80126 16.8037 7.89671C18.3117 9.32857 15.7437 12.5114 13.8522 14.1417L17.2345 18.3639C21.052 14.9741 23.3571 10.4413 20.6082 7.6897C17.911 5.45997 14.5072 6.13277 10.6035 8.83691L11.0602 9.21213Z" fill="white"/>
<path fill-rule="evenodd" clip-rule="evenodd" d="M7.18682 11.429C8.10708 13.0061 9.18862 14.4833 10.414 15.8367C10.19 16.0652 9.88404 16.3973 9.66861 16.6475C8.42718 15.3183 7.27565 13.9077 6.22168 12.4252C6.50174 12.1276 6.89383 11.7136 7.18682 11.429Z" fill="white"/>
<path fill-rule="evenodd" clip-rule="evenodd" d="M94.4156 5.83105C94.5973 5.83106 94.7749 5.88504 94.9259 5.98618C95.0769 6.08731 95.1945 6.23103 95.2638 6.39914C95.3332 6.56725 95.3511 6.75218 95.3153 6.93049C95.2796 7.10881 95.1917 7.27248 95.063 7.40078C94.9342 7.52908 94.7702 7.61623 94.5919 7.65119C94.4136 7.68615 94.229 7.66734 94.0614 7.59715C93.8937 7.52696 93.7507 7.40854 93.6504 7.25691C93.5501 7.10527 93.497 6.92724 93.4978 6.74537C93.4989 6.50323 93.5955 6.27133 93.7666 6.10011C93.9377 5.92888 94.1693 5.83219 94.4112 5.83105H94.4156ZM94.2604 7.03002V6.76694L94.3509 6.74106L94.4112 6.7195C94.4725 6.79523 94.5273 6.87602 94.575 6.96101C94.607 7.01483 94.6262 7.07536 94.631 7.13784C94.631 7.13784 94.631 7.16372 94.631 7.17234L94.5922 7.19391H94.8852C94.8604 7.18235 94.8388 7.16491 94.8223 7.14312C94.8058 7.12132 94.7949 7.09583 94.7904 7.06883C94.7912 7.06023 94.7912 7.05157 94.7904 7.04296C94.765 6.97265 94.7333 6.90481 94.6956 6.84026C94.658 6.7758 94.6163 6.71385 94.5707 6.6548C94.6273 6.62687 94.6784 6.58888 94.7215 6.54267C94.7501 6.50902 94.7654 6.46608 94.7646 6.42191C94.7658 6.40209 94.7621 6.38227 94.7538 6.36422C94.7455 6.34616 94.733 6.33042 94.7172 6.3184C94.6739 6.28976 94.6224 6.27613 94.5707 6.27959H94.0148C94.0279 6.27874 94.041 6.28103 94.053 6.28628C94.065 6.29154 94.0755 6.29959 94.0838 6.30978C94.0934 6.35237 94.0934 6.39657 94.0838 6.43916V7.03002C94.0939 7.07256 94.0939 7.11687 94.0838 7.1594C94.076 7.17038 94.0657 7.17927 94.0536 7.18528C94.0416 7.1913 94.0283 7.19426 94.0148 7.19391H94.3595C94.3468 7.19357 94.3344 7.19028 94.3232 7.18429C94.3119 7.17831 94.3023 7.16978 94.2949 7.1594C94.2842 7.11695 94.2842 7.07248 94.2949 7.03002H94.2604ZM94.2604 6.69793C94.3476 6.67546 94.4305 6.63905 94.506 6.59011C94.5286 6.57762 94.5475 6.55957 94.5611 6.53768C94.5747 6.51579 94.5824 6.49078 94.5836 6.46504C94.5843 6.44818 94.5808 6.43141 94.5732 6.41632C94.5657 6.40122 94.5544 6.38831 94.5405 6.37878C94.498 6.35673 94.4504 6.34631 94.4026 6.34859C94.3657 6.34116 94.3276 6.34116 94.2906 6.34859C94.2691 6.34859 94.2604 6.38741 94.2604 6.43485V6.68068V6.69793ZM94.4156 6.03376C94.2739 6.03376 94.1355 6.07586 94.0177 6.15472C93.9 6.23358 93.8084 6.34565 93.7544 6.47672C93.7004 6.60779 93.6864 6.75196 93.7144 6.89095C93.7423 7.02994 93.8109 7.1575 93.9113 7.25745C94.0118 7.3574 94.1397 7.42525 94.2787 7.45238C94.4177 7.47952 94.5616 7.46472 94.6923 7.40987C94.8229 7.35502 94.9343 7.26259 95.0123 7.14429C95.0904 7.02599 95.1316 6.88715 95.1308 6.74537C95.1285 6.557 95.0522 6.3771 94.9183 6.2447C94.7844 6.1123 94.6038 6.03806 94.4156 6.03807V6.03376Z" fill="white"/>
<path fill-rule="evenodd" clip-rule="evenodd" d="M34.8225 10.1955C35.665 10.2402 36.4972 10.4013 37.2956 10.6742C37.9519 10.9243 38.5544 11.2976 39.0708 11.774L36.7097 4.58448L34.8225 10.1912V10.1955ZM33.8875 18.1785V18.5149H29.3203V18.1785C30.2395 17.9772 30.9978 17.0126 31.5953 15.2846L31.6341 15.1897L35.4128 4.40766C35.4559 4.28515 35.4905 4.15977 35.5162 4.03244C35.5362 3.93307 35.5463 3.83193 35.5463 3.73054C35.5515 3.5645 35.4998 3.40169 35.3998 3.26907C35.2709 3.11677 35.1067 2.99832 34.9216 2.92405V2.58765H39.799V2.92405C39.618 2.99524 39.4568 3.10917 39.3293 3.25613C39.231 3.39451 39.1797 3.56079 39.1828 3.73054C39.1844 3.83064 39.1959 3.93033 39.2173 4.02813C39.2431 4.13164 39.2776 4.26102 39.3293 4.40766L43.0563 15.8064C43.2406 16.4904 43.5314 17.1409 43.918 17.7343C44.1534 18.0057 44.4863 18.1732 44.8444 18.2001V18.5235H39.6051V18.1871C39.9006 18.0905 40.1564 17.8997 40.3332 17.6437C40.4995 17.3594 40.5789 17.0325 40.5616 16.7035C40.5624 16.033 40.4125 15.371 40.1231 14.7663C39.8338 14.1616 39.4123 13.6297 38.8898 13.2101C37.6193 12.1762 36.0632 11.5561 34.4304 11.4332L33.0775 15.3967C32.975 15.689 32.8901 15.9871 32.8232 16.2895C32.776 16.5108 32.75 16.7361 32.7457 16.9623C32.722 17.274 32.8193 17.5829 33.0171 17.8249C33.2537 18.0402 33.5593 18.164 33.8789 18.1742L33.8875 18.1785ZM45.9862 18.4459L45.8138 13.5465L46.0508 13.5207C46.1939 14.653 46.74 15.6958 47.589 16.4577C48.4452 17.1869 49.5418 17.5712 50.6654 17.5359C51.4102 17.5731 52.1482 17.3771 52.7766 16.9752C53.024 16.8233 53.2281 16.6102 53.3692 16.3564C53.5103 16.1025 53.5837 15.8166 53.5824 15.5261C53.5824 14.5313 52.577 13.7564 50.5663 13.2015L49.7347 12.9686C48.7483 12.7485 47.8292 12.2944 47.0547 11.6446C46.7833 11.3824 46.5698 11.0662 46.428 10.7163C46.2863 10.3664 46.2194 9.9906 46.2318 9.61324C46.2194 9.13406 46.3212 8.65882 46.5288 8.22683C46.7363 7.79485 47.0436 7.41855 47.4253 7.12905C48.3623 6.46375 49.4967 6.13542 50.6439 6.19748C51.3284 6.20546 52.0101 6.28643 52.6775 6.439C53.0927 6.5391 53.5126 6.61827 53.9357 6.6762C54.0401 6.67376 54.1441 6.66075 54.2459 6.63739L54.8232 6.49075L55.0516 10.3378L54.8232 10.3637C54.6404 9.49007 54.132 8.719 53.4014 8.20726C52.5812 7.67909 51.6183 7.41703 50.6439 7.45682C50.1065 7.42433 49.5718 7.55511 49.11 7.83204C48.9355 7.9516 48.7944 8.1138 48.7002 8.30326C48.6059 8.49271 48.5616 8.70314 48.5714 8.91456C48.5714 9.69518 49.5279 10.3378 51.441 10.851L52.1476 11.0408C53.6125 11.4721 54.638 11.9292 55.211 12.4813C55.5029 12.7671 55.7307 13.1118 55.8793 13.4925C56.0279 13.8732 56.0938 14.2812 56.0728 14.6894C56.0891 15.2766 55.9614 15.8589 55.7007 16.3853C55.4401 16.9116 55.0545 17.3659 54.5777 17.7084C53.5824 18.4631 52.2424 18.8427 50.5663 18.8427C49.8005 18.8364 49.0397 18.7172 48.3086 18.489C47.8852 18.3462 47.4536 18.2296 47.016 18.1397C46.8838 18.1483 46.7535 18.1744 46.6282 18.2173C46.4515 18.2691 46.2361 18.3381 45.9905 18.433L45.9862 18.4459ZM59.8902 7.73716V14.6636C59.8902 15.7475 60.0439 16.4663 60.3513 16.82C60.6572 17.1822 61.213 17.3634 61.9842 17.3634C62.5816 17.3989 63.1796 17.3057 63.7379 17.0899C64.2961 16.8741 64.8016 16.5409 65.22 16.1127C65.987 15.2817 66.3704 14.1187 66.3704 12.6236C66.3704 11.0365 65.918 9.81881 65.0132 8.97062C64.1127 8.10806 62.8072 7.70265 61.0967 7.70265C60.9286 7.70265 60.6184 7.70265 60.1617 7.73716H59.8902ZM57.4601 8.81968C57.5016 8.34183 57.4075 7.86198 57.1887 7.43526C57.0546 7.27256 56.8896 7.1381 56.7032 7.03964C56.5168 6.94118 56.3128 6.88069 56.1029 6.86165V6.56838H62.0015C62.914 6.5501 63.8258 6.63254 64.7202 6.81421C65.3845 6.96743 66.0153 7.24074 66.5816 7.62071C67.3783 8.15784 68.0214 8.89367 68.4472 9.75556C68.8905 10.6579 69.1135 11.6527 69.0978 12.6581C69.0978 14.7196 68.5018 16.2119 67.3097 17.1348C66.1177 18.0577 64.163 18.5178 61.4457 18.5149H59.8902V20.7317C59.8401 21.3724 59.9389 22.016 60.1789 22.6121C60.2907 22.7899 60.444 22.9378 60.6257 23.043C60.8074 23.1482 61.0119 23.2075 61.2216 23.2159V23.4401H56.2796V23.2159C56.4582 23.2318 56.6379 23.2002 56.8005 23.1245C56.9631 23.0488 57.103 22.9316 57.2059 22.7846C57.4248 22.3347 57.5185 21.8342 57.4774 21.3355V8.8283L57.4601 8.81968ZM79.3223 9.98414C79.0916 9.26095 78.6774 8.61005 78.1202 8.09512C77.6213 7.6805 76.9889 7.46134 76.3407 7.47839C75.8921 7.4676 75.4474 7.56271 75.0424 7.75603C74.6374 7.94935 74.2836 8.23543 74.0097 8.5911C73.3812 9.44193 73.0661 10.4842 73.1178 11.5411V11.774L79.3223 9.98414ZM82.1272 14.4091L82.334 14.4824L81.1362 18.6529H80.9251H80.5761C80.0715 18.6678 79.5682 18.7095 79.0681 18.778C78.5494 18.8475 78.0272 18.8879 77.504 18.8987C75.6193 18.9617 73.7838 18.289 72.3853 17.0227C71.7304 16.4331 71.2112 15.7082 70.8638 14.898C70.5164 14.0878 70.349 13.2117 70.3732 12.3303C70.3541 11.5214 70.5024 10.7172 70.8086 9.96835C71.1148 9.21948 71.5724 8.54208 72.1527 7.97868C72.739 7.40279 73.4354 6.95127 74.2002 6.65113C74.965 6.351 75.7824 6.20844 76.6035 6.23198C77.8491 6.18681 79.0746 6.55528 80.0892 7.28C81.0833 8.06681 81.8016 9.1498 82.1401 10.3723L73.2471 12.9384C73.3994 14.1822 73.9584 15.3407 74.837 16.2334C75.6932 17.0207 76.8246 17.439 77.9866 17.3979C78.8659 17.4235 79.7301 17.1649 80.4511 16.6604C81.206 16.0745 81.7907 15.2972 82.1444 14.4091H82.1272ZM94.0019 15.0517L94.2388 15.125L93.1143 18.7262L92.6446 18.6745C92.5326 18.6745 92.4464 18.6745 92.3947 18.6745C92.343 18.6745 91.9639 18.709 91.4468 18.778C90.9796 18.8396 90.5091 18.8727 90.0379 18.8772C89.1444 18.9138 88.253 18.7645 87.4202 18.4386C86.5873 18.1127 85.8311 17.6173 85.1993 16.9839C84.5809 16.3504 84.0971 15.5981 83.7772 14.7724C83.4573 13.9466 83.3079 13.0645 83.3379 12.1794C83.2679 10.6269 83.7918 9.10621 84.8029 7.92692C85.2863 7.38945 85.882 6.96514 86.5478 6.68413C87.2135 6.40312 87.9329 6.27231 88.6548 6.30099C89.0656 6.31199 89.4755 6.3451 89.8828 6.40018C90.3358 6.45944 90.7918 6.49256 91.2486 6.49938C91.4297 6.49752 91.6102 6.47729 91.7872 6.439C92.0012 6.39273 92.2114 6.33075 92.4163 6.25355L93.1358 10.1351H92.929C92.5852 9.41027 92.0778 8.77538 91.4468 8.28057C90.8983 7.87031 90.2315 7.64934 89.5467 7.6509C89.0576 7.63263 88.5713 7.73243 88.1289 7.94185C87.6864 8.15128 87.3008 8.4642 87.0046 8.85418C86.3503 9.79652 86.0275 10.9298 86.0869 12.0759C86.0869 13.732 86.4617 15.0359 87.2114 15.9876C87.5728 16.4517 88.0398 16.8226 88.5734 17.0694C89.107 17.3163 89.6919 17.4318 90.2792 17.4065C91.0402 17.42 91.7887 17.2117 92.4335 16.807C93.1017 16.3654 93.6472 15.7615 94.0191 15.0517H94.0019Z" fill="white"/>
<path fill-rule="evenodd" clip-rule="evenodd" d="M64.9617 25.2041L65.5864 22.2153H65.9871L65.3624 25.2041H64.9617ZM66.0862 25.2041L66.711 22.2153H67.0988L67.6029 23.3366C67.7537 23.6773 67.8743 23.9663 67.9648 24.1992C68.0165 24.3372 68.0768 24.5183 68.1458 24.7512C68.1802 24.5011 68.2276 24.238 68.2836 23.9706L68.6499 22.2153H69.0377L68.4172 25.2041H68.0208L67.2797 23.4789C67.1505 23.1727 67.0471 22.9053 66.9738 22.6724C66.9523 22.8665 66.9135 23.1037 66.8532 23.3884L66.474 25.2041H66.0862ZM69.1023 25.2041L69.7227 22.2153H71.6659L71.5927 22.556H70.0545L69.8563 23.5091H71.4247L71.3557 23.8498H69.7831L69.4987 25.2041H69.1023ZM71.8426 23.9533C71.8197 23.4781 71.9854 23.013 72.3036 22.6595C72.4427 22.5009 72.6145 22.3744 72.8072 22.2888C72.9998 22.2032 73.2088 22.1604 73.4196 22.1635C73.5884 22.1567 73.7567 22.1859 73.9135 22.2491C74.0702 22.3123 74.2117 22.4081 74.3287 22.5301C74.4499 22.6606 74.5436 22.8141 74.6043 22.9815C74.665 23.149 74.6914 23.3269 74.682 23.5048C74.6838 23.7835 74.6235 24.059 74.5053 24.3113C74.4207 24.4898 74.3072 24.653 74.1693 24.7943C74.044 24.9224 73.8984 25.0288 73.7384 25.1092C73.5365 25.2054 73.3157 25.2555 73.0921 25.2558C72.8624 25.2576 72.6363 25.198 72.4372 25.0833C72.2483 24.9712 72.0981 24.8042 72.0063 24.6046C71.9048 24.4027 71.8531 24.1794 71.8555 23.9533H71.8426ZM72.2347 23.9533C72.232 24.122 72.2689 24.2889 72.3424 24.4407C72.4146 24.5834 72.5269 24.7018 72.6655 24.7814C72.8031 24.865 72.9613 24.9083 73.1223 24.9065C73.2725 24.9064 73.4205 24.8694 73.5531 24.7987C73.6976 24.7232 73.8251 24.619 73.928 24.4924C74.0427 24.3501 74.1304 24.1878 74.1865 24.0137C74.2452 23.8341 74.2757 23.6464 74.277 23.4574C74.2913 23.1971 74.2031 22.9417 74.0314 22.7458C73.9536 22.6599 73.8584 22.5916 73.7521 22.5455C73.6459 22.4994 73.531 22.4765 73.4153 22.4784C73.2563 22.48 73.0998 22.5168 72.9567 22.5861C72.8137 22.6555 72.6878 22.7556 72.588 22.8794C72.3369 23.179 72.209 23.5629 72.2304 23.9533H72.2347ZM74.8974 25.1868L75.5265 22.198H76.776C76.9646 22.1918 77.1532 22.2121 77.3361 22.2584C77.4625 22.2974 77.57 22.3819 77.6377 22.4956C77.7161 22.6254 77.7551 22.7753 77.7498 22.9269C77.7526 23.0387 77.7326 23.1498 77.6912 23.2536C77.6497 23.3574 77.5875 23.4517 77.5085 23.5307C77.2937 23.7155 77.0243 23.8246 76.7415 23.8412C76.8344 23.908 76.9172 23.9879 76.9871 24.0784C77.1073 24.2479 77.2084 24.4301 77.2887 24.6218L77.5171 25.1868H77.0862L76.8751 24.6305C76.8063 24.4468 76.7167 24.2717 76.608 24.1086C76.5576 24.0243 76.4864 23.9545 76.4012 23.9059C76.2903 23.8685 76.1733 23.8524 76.0565 23.8585H75.5911L75.3154 25.1868H74.8974ZM75.6428 23.535H76.1943C76.4485 23.535 76.6252 23.535 76.6941 23.535C76.823 23.5236 76.9486 23.4885 77.0647 23.4315C77.1561 23.3828 77.2325 23.3101 77.2856 23.2212C77.3388 23.1323 77.3667 23.0305 77.3663 22.9269C77.3695 22.8477 77.3485 22.7695 77.306 22.7026C77.2715 22.6429 77.2186 22.596 77.1552 22.5689C77.0482 22.5418 76.9379 22.5301 76.8277 22.5344H75.8324L75.6213 23.5436L75.6428 23.535ZM77.9006 25.1868L78.521 22.198H79.0122L79.2793 24.1517C79.3181 24.4062 79.344 24.6477 79.3569 24.8849C79.4825 24.6027 79.6264 24.3289 79.7878 24.0655L80.8348 22.2153H81.3303L80.7098 25.2041H80.3134L80.6279 23.7506C80.71 23.3689 80.8121 22.9917 80.9339 22.6207C80.8411 22.835 80.7361 23.0438 80.6193 23.246L79.5077 25.2041H79.1199L78.8485 23.2892C78.8226 23.1123 78.8011 22.9096 78.7881 22.6724C78.7537 22.9355 78.7192 23.1425 78.689 23.2978L78.2927 25.2041L77.9006 25.1868ZM81.1062 25.1868H81.5371L82.0196 24.3242H83.2261L83.3682 25.1868H83.756L83.2648 22.198H82.7952L81.1019 25.1868H81.1062ZM82.192 24.018L82.6832 23.1555C82.7948 22.9591 82.8941 22.756 82.9805 22.5474C82.9805 22.7457 83.0192 22.9786 83.0666 23.2892L83.183 24.0396L82.192 24.018ZM82.7909 22.0169L83.17 21.4519H83.6354L83.0968 22.0169H82.7909ZM84.9194 25.1868L85.4709 22.5387H84.4885L84.5617 22.198H86.91L86.841 22.5387H85.8673L85.3115 25.2041L84.9194 25.1868ZM86.7592 25.1868H87.1556L87.776 22.198H87.3796L86.7592 25.1868ZM90.2061 24.1345L90.6025 24.1905C90.4998 24.4985 90.3096 24.7698 90.0553 24.9712C89.823 25.1459 89.5401 25.2398 89.2496 25.2386C89.0907 25.2463 88.9321 25.2208 88.7837 25.1636C88.6353 25.1064 88.5005 25.0188 88.3878 24.9065C88.1613 24.6426 88.0469 24.3005 88.069 23.9533C88.0512 23.462 88.2241 22.9828 88.5516 22.6164C88.6869 22.4652 88.8532 22.3451 89.039 22.2639C89.2249 22.1828 89.426 22.1427 89.6287 22.1463C89.9068 22.1347 90.1796 22.2252 90.3957 22.4007C90.5929 22.5771 90.7148 22.8226 90.736 23.0865L90.3655 23.121C90.3407 22.9367 90.2541 22.7664 90.1199 22.6379C89.9877 22.5269 89.8184 22.4699 89.646 22.4784C89.4688 22.477 89.2942 22.5211 89.1388 22.6064C88.9835 22.6917 88.8525 22.8154 88.7584 22.9657C88.5608 23.2598 88.4585 23.6076 88.4654 23.962C88.4496 24.2161 88.5295 24.4669 88.6894 24.665C88.7654 24.7444 88.8573 24.8069 88.9589 24.8485C89.0606 24.8901 89.1699 24.9098 89.2797 24.9065C89.4846 24.9077 89.6831 24.8358 89.8398 24.7038C90.0168 24.5556 90.1445 24.357 90.2061 24.1345ZM90.637 25.1868H91.0678L91.5461 24.3242H92.7568L92.899 25.1868H93.2868L92.7956 22.198H92.3216L90.6326 25.1868H90.637ZM91.7227 24.018L92.2139 23.1555C92.3238 22.9582 92.423 22.7552 92.5112 22.5474C92.5112 22.7457 92.55 22.9786 92.5931 23.2892L92.7094 24.0396L91.7227 24.018Z" fill="white"/>
</g>
<defs>
<clipPath id="clip0_902_11511">
<rect width="95.3333" height="30" fill="white"/>
</clipPath>
</defs>
</svg>
