<svg width="14" height="16" viewBox="0 0 14 16" fill="none" xmlns="http://www.w3.org/2000/svg">
<path id="notifications-icon" d="M8.85 13.6V13.4H12.9H13.4V12.9V12.2V11.9929L13.2536 11.8464L12 10.5929V6.95C12 4.67828 10.5457 2.82181 8.5 2.16169V2.05C8.5 1.21386 7.78614 0.5 6.95 0.5C6.11386 0.5 5.4 1.21386 5.4 2.05V2.16169C3.35431 2.82181 1.9 4.67828 1.9 6.95V10.5929L0.646447 11.8464L0.5 11.9929V12.2V12.9V13.4H1H5.05V13.6C5.05 14.6461 5.90386 15.5 6.95 15.5C7.99614 15.5 8.85 14.6461 8.85 13.6Z" fill="#73614C" stroke="#FFDBCD"/>
</svg>
