<svg width="35" height="40" viewBox="0 0 35 40" fill="none" xmlns="http://www.w3.org/2000/svg">
<path d="M25.0125 37.3684H9.1981C8.73245 37.3684 8.30221 37.6191 8.06927 38.0261C7.83661 38.4335 7.83661 38.935 8.06927 39.3422C8.30227 39.7492 8.73248 40 9.1981 40H25.0125C25.4782 40 25.9084 39.7492 26.1413 39.3422C26.374 38.9349 26.374 38.4334 26.1413 38.0261C25.9083 37.6192 25.4781 37.3684 25.0125 37.3684Z" fill="#D9AB9A"/>
<path fill-rule="evenodd" clip-rule="evenodd" d="M4.73684 9.21045H4.05879C2.98324 9.21281 1.95221 9.64157 1.19152 10.403C0.431126 11.1643 0.00276114 12.1959 0 13.2727V31.3985C0.00269643 32.4753 0.431092 33.5068 1.19152 34.2682C1.95225 35.0295 2.98333 35.4583 4.05879 35.4607H12.08C12.0813 35.8965 12.2549 36.3141 12.5627 36.6221C12.8704 36.9301 13.2877 37.1038 13.7228 37.1052H20.4877C20.9229 37.1038 21.3402 36.9301 21.6479 36.6221C21.9556 36.3141 22.1292 35.8965 22.1305 35.4607H30.1517C31.2273 35.4583 32.2583 35.0296 33.0187 34.2682C33.7795 33.5068 34.2079 32.4752 34.2105 31.3985V13.2727C34.2078 12.1959 33.7794 11.1643 33.0187 10.403C32.2584 9.6416 31.2273 9.21287 30.1517 9.21045H30.1516H29.4737V11.536H30.1511C30.6116 11.536 31.0531 11.7188 31.3793 12.0443C31.7053 12.3699 31.8893 12.8115 31.8906 13.2723L31.8911 28.3997C31.8898 28.8598 31.7064 29.3007 31.3815 29.6259C31.0566 29.9511 30.616 30.1346 30.1563 30.1359H4.05834C3.59861 30.1346 3.15839 29.9511 2.83317 29.6259C2.50826 29.3007 2.3249 28.8598 2.32389 28.3997V13.2722C2.3249 12.8121 2.50826 12.3712 2.83317 12.046C3.15843 11.7205 3.59862 11.5373 4.05834 11.536H4.73684V9.21045ZM16.4053 31.631C15.9742 31.88 15.7082 32.3408 15.7082 32.839C15.7082 33.3376 15.9742 33.798 16.4053 34.0473C16.8367 34.2966 17.3682 34.2966 17.7993 34.0473C18.2307 33.798 18.4963 33.3376 18.4963 32.839C18.4963 32.3408 18.2307 31.88 17.7993 31.631C17.3682 31.3817 16.8367 31.3817 16.4053 31.631Z" fill="#D9AB9A"/>
<g clip-path="url(#clip0_796_3173)">
<path fill-rule="evenodd" clip-rule="evenodd" d="M17.7461 4.54164C17.8337 4.62832 17.883 4.74596 17.883 4.86855V9.8482H23.807C24.0651 9.8482 24.2744 10.0552 24.2744 10.3105V10.4175C24.2744 10.418 24.2744 10.4184 24.2744 10.4189V15.9686C24.2744 15.9691 24.2744 15.9695 24.2744 15.9699V21.4106C24.2744 21.5332 24.2252 21.6508 24.1375 21.7375C24.0497 21.8242 23.931 21.8729 23.807 21.8729H10.4051C10.2812 21.8729 10.1622 21.8242 10.0746 21.7375C9.98699 21.6508 9.93774 21.5332 9.93774 21.4106V15.9686V15.8608V4.86855C9.93774 4.61326 10.147 4.40625 10.4051 4.40625H17.4156C17.5395 4.40625 17.6585 4.45496 17.7461 4.54164ZM16.9167 13.6571V15.3985H10.8725V13.6571H16.9167ZM16.9167 10.8833V12.7325H10.8725V10.8833H16.9167ZM10.8725 16.4309V18.1722H16.9167V16.4309H10.8725ZM17.8515 16.4309V18.1744H23.3397V16.4309H17.8515ZM10.8725 9.95866H16.9482V8.10944H10.8725V9.95866ZM10.8725 7.18483H16.9482V5.33561H10.8725V7.18483ZM17.883 15.4006V13.6571H23.3397L23.3397 15.4006H17.883ZM17.883 12.6268V10.881H23.3397L23.3397 12.6268H17.883ZM23.3397 20.9483H17.8515V19.099H23.3397V20.9483ZM16.9167 20.9483H10.8725V19.099H16.9167V20.9483Z" fill="#73614C"/>
<path d="M27.3872 19.0791V6.92336L20.4349 0.0463867H8.69254C8.1968 0.0463867 7.72128 0.241215 7.37056 0.587943C7.02004 0.934878 6.82308 1.40524 6.82308 1.8956V17.4945C6.68141 17.575 6.56352 17.6908 6.48153 17.8307C6.39953 17.9705 6.35613 18.129 6.35571 18.2906V25.0106C6.35655 25.6234 6.60296 26.211 7.0409 26.6444C7.47905 27.0776 8.07306 27.3213 8.69254 27.3222H25.5177C26.1372 27.3213 26.7312 27.0776 27.1694 26.6444C27.6073 26.211 27.8537 25.6234 27.8545 25.0106V19.8757C27.8541 19.7141 27.8109 19.5554 27.7287 19.4155C27.6467 19.2758 27.5288 19.1596 27.3872 19.0791ZM26.4526 25.7137C26.4526 25.7137 20.209 25.6105 16.2106 25.7137C15.5669 25.7303 16.1215 25.7105 14.4736 25.7105C12.8256 25.7105 12.763 25.7105 11.2274 25.7105H7.75781V1.89509C7.75781 1.64991 7.85629 1.41462 8.03155 1.24126C8.20681 1.0679 8.44467 0.970483 8.69254 0.970483H19.7737V5.72767C19.7737 6.21804 19.9706 6.68842 20.3214 7.03512C20.6719 7.38206 21.1474 7.57689 21.6431 7.57689H26.4524L26.4526 25.7137Z" fill="#73614C"/>
</g>
<defs>
<clipPath id="clip0_796_3173">
<rect width="21.5789" height="27.3684" fill="white" transform="translate(6.31567)"/>
</clipPath>
</defs>
</svg>
