<svg width="16" height="17" viewBox="0 0 16 17" fill="none" xmlns="http://www.w3.org/2000/svg">
<path d="M13.9499 9.28333C13.9833 9.03333 13.9999 8.775 13.9999 8.5C13.9999 8.23333 13.9833 7.96667 13.9416 7.71667L15.6333 6.4C15.7833 6.28333 15.8249 6.05833 15.7333 5.89167L14.1333 3.125C14.0333 2.94167 13.8249 2.88333 13.6416 2.94167L11.6499 3.74167C11.2333 3.425 10.7916 3.15833 10.2999 2.95833L9.99993 0.841667C9.96659 0.641667 9.79993 0.5 9.59993 0.5H6.39993C6.19993 0.5 6.04159 0.641667 6.00826 0.841667L5.70826 2.95833C5.2166 3.15833 4.7666 3.43333 4.35826 3.74167L2.3666 2.94167C2.18326 2.875 1.97493 2.94167 1.87493 3.125L0.283262 5.89167C0.183262 6.06667 0.216595 6.28333 0.383262 6.4L2.07493 7.71667C2.03326 7.96667 1.99993 8.24167 1.99993 8.5C1.99993 8.75833 2.0166 9.03333 2.05826 9.28333L0.366595 10.6C0.216595 10.7167 0.174929 10.9417 0.266595 11.1083L1.8666 13.875C1.9666 14.0583 2.17493 14.1167 2.35826 14.0583L4.34993 13.2583C4.76659 13.575 5.20826 13.8417 5.69993 14.0417L5.99993 16.1583C6.0416 16.3583 6.19993 16.5 6.39993 16.5H9.59993C9.79993 16.5 9.9666 16.3583 9.9916 16.1583L10.2916 14.0417C10.7833 13.8417 11.2333 13.575 11.6416 13.2583L13.6333 14.0583C13.8166 14.125 14.0249 14.0583 14.1249 13.875L15.7249 11.1083C15.8249 10.925 15.7833 10.7167 15.6249 10.6L13.9499 9.28333ZM7.99993 11.5C6.34993 11.5 4.99993 10.15 4.99993 8.5C4.99993 6.85 6.34993 5.5 7.99993 5.5C9.64993 5.5 10.9999 6.85 10.9999 8.5C10.9999 10.15 9.64993 11.5 7.99993 11.5Z" fill="#FFDBCD"/>
</svg>
