<svg width="18" height="15" viewBox="0 0 18 15" fill="none" xmlns="http://www.w3.org/2000/svg">
<path d="M14.0001 6.66658V8.33325H17.3334V6.66658H14.0001ZM12.3334 12.1749C13.1334 12.7666 14.1751 13.5499 15.0001 14.1666C15.3334 13.7249 15.6667 13.2749 16.0001 12.8333C15.1751 12.2166 14.1334 11.4333 13.3334 10.8333C13.0001 11.2833 12.6667 11.7333 12.3334 12.1749ZM16.0001 2.16659C15.6667 1.72492 15.3334 1.27492 15.0001 0.833252C14.1751 1.44992 13.1334 2.23325 12.3334 2.83325C12.6667 3.27492 13.0001 3.72492 13.3334 4.16658C14.1334 3.56659 15.1751 2.79158 16.0001 2.16659ZM2.33341 4.99992C1.41675 4.99992 0.666748 5.74992 0.666748 6.66658V8.33325C0.666748 9.24992 1.41675 9.99992 2.33341 9.99992H3.16675V13.3333H4.83342V9.99992H5.66675L9.83342 12.4999V2.49992L5.66675 4.99992H2.33341ZM11.9167 7.49992C11.9167 6.39158 11.4334 5.39158 10.6667 4.70825V10.2833C11.4334 9.60825 11.9167 8.60825 11.9167 7.49992Z" fill="#FFDBCD"/>
</svg>
